<svg width="387" height="400" viewBox="0 0 387 400" fill="none" xmlns="http://www.w3.org/2000/svg">
<g filter="url(#filter0_d_102_9)">
<rect x="14" width="359" height="471" rx="13" fill="white" fill-opacity="0.96"/>
<g opacity="0.66">
<rect x="49" y="64.9138" width="21.9138" height="79.0646" rx="5" transform="rotate(-90 49 64.9138)" fill="white"/>
<rect x="49" y="64.9138" width="21.9138" height="79.0646" rx="5" transform="rotate(-90 49 64.9138)" fill="#65BACE"/>
</g>
<rect opacity="0.66" x="261.935" y="64.9138" width="21.9138" height="79.0646" rx="5" transform="rotate(-90 261.935 64.9138)" fill="#5B1B1B"/>
<rect opacity="0.66" x="155.018" y="64.9138" width="21.9138" height="79.9631" rx="5" transform="rotate(-90 155.018 64.9138)" fill="#A87684"/>
<g opacity="0.66">
<rect x="49" y="378.914" width="21.9138" height="79.0646" rx="5" transform="rotate(-90 49 378.914)" fill="white"/>
<rect x="49" y="378.914" width="21.9138" height="79.0646" rx="5" transform="rotate(-90 49 378.914)" fill="#65BACE"/>
</g>
<rect opacity="0.66" x="261.935" y="378.914" width="21.9138" height="79.0646" rx="5" transform="rotate(-90 261.935 378.914)" fill="#5B1B1B"/>
<rect opacity="0.66" x="155.018" y="378.914" width="21.9138" height="79.9631" rx="5" transform="rotate(-90 155.018 378.914)" fill="#A87684"/>
<g clip-path="url(#clip0_102_9)" filter="url(#filter1_d_102_9)">
<path d="M161.103 237.23C161.103 237.23 225.875 237.23 247.557 237.23C251.239 237.23 252.193 237.001 257.103 240.666C259.148 242.155 260.512 243.186 261.33 243.988C262.148 244.675 262.284 245.821 261.739 246.622L261.33 247.081C261.33 247.081 252.193 240.093 236.784 240.093C211.421 240.093 165.466 240.093 165.466 240.093L161.103 237.23Z" fill="#CEA5B1"/>
<path d="M130.83 235.511L131.921 234.824C133.693 233.679 135.739 233.106 137.921 233.106H146.921L167.375 238.948H246.875C248.784 238.948 250.693 239.521 252.193 240.552L261.33 246.966H258.057C256.966 246.966 255.875 246.622 255.057 246.05L251.921 243.873C249.603 242.499 246.875 241.812 244.012 241.812H128.103V240.322C128.103 238.375 129.057 236.657 130.83 235.511Z" fill="#5B1B1B"/>
<path d="M167.921 189.006H164.239L149.512 239.062H153.603L167.921 189.006Z" fill="#A87684"/>
<path d="M164.239 189.006H156.057L142.557 239.062H149.512L164.239 189.006Z" fill="#B88C97"/>
<path d="M154.421 189.006L140.784 239.062H142.557L156.057 189.006H154.421Z" fill="#CEA5B1"/>
<path d="M139.829 158.877L137.069 160.354L149.6 176.872L152.36 175.395L139.829 158.877Z" fill="#5B1B1B"/>
<path d="M139.83 158.88L138.466 159.567L150.875 175.833L152.375 175.489L139.83 158.88Z" fill="#963535"/>
<path d="M200.103 134.482C200.103 134.482 201.193 135.284 201.603 136.544C201.875 137.804 201.875 142.5 201.875 142.5L210.193 139.293C210.193 139.293 208.83 135.169 209.375 133.336C209.921 131.504 210.193 129.671 210.193 129.671L200.103 134.482Z" fill="url(#paint0_linear_102_9)"/>
<path d="M188.512 143.416C189.466 143.187 190.83 144.562 190.83 146.051C190.83 147.54 189.193 148.915 189.739 149.602C190.284 150.289 197.784 153.84 197.784 153.84L196.284 159.911C196.284 159.911 189.466 156.131 186.875 153.038C184.421 150.06 183.875 148.227 183.739 146.853C183.466 145.707 184.421 145.249 185.239 145.593C184.966 144.104 186.193 144.218 186.875 144.333C187.284 142.729 188.512 143.416 188.512 143.416Z" fill="url(#paint1_linear_102_9)"/>
<path d="M199.012 119.935C197.921 120.278 196.966 120.736 196.693 121.653C196.557 122.111 196.148 122.798 196.148 123.371C196.012 124.745 196.557 126.12 196.557 126.693C196.557 128.067 193.557 129.098 194.239 130.015C194.512 130.244 195.875 130.358 195.875 130.931C195.875 131.389 195.33 131.504 195.875 131.962C195.466 132.535 195.875 132.649 196.148 132.764C196.421 132.878 196.83 132.878 196.557 133.336C195.875 134.94 196.966 135.513 200.375 134.94C202.012 134.711 203.512 133.909 205.284 132.993C207.33 131.962 210.057 129.556 210.057 129.556C210.057 129.556 205.693 118.102 199.012 119.935Z" fill="url(#paint2_linear_102_9)"/>
<path d="M196.693 121.653C196.693 121.653 195.603 120.736 195.603 120.049C196.557 120.049 200.921 117.415 204.603 117.644C209.103 117.987 212.648 120.736 212.921 123.027C213.33 125.318 211.966 129.785 211.148 131.045C210.33 132.305 209.239 134.711 209.239 134.711C209.239 134.711 208.83 134.367 208.148 133.451C208.148 132.878 207.603 131.618 207.466 130.473C208.148 128.984 208.966 127.265 207.057 127.036C205.557 126.922 204.466 128.869 204.466 128.869L203.784 128.525C203.784 128.525 204.466 125.204 202.284 124.058C202.421 122.684 203.784 120.164 196.693 121.653Z" fill="url(#paint3_linear_102_9)"/>
<path d="M204.33 189.579C204.33 189.579 210.193 194.046 212.921 197.711C214.421 199.773 215.784 201.377 216.875 202.522C218.103 203.668 218.375 203.782 220.148 204.355C226.421 206.073 245.239 218.444 245.239 218.444L247.83 213.519C247.83 213.519 241.693 208.02 235.693 202.866C232.83 200.46 230.648 198.513 228.466 197.482C226.012 196.337 223.83 196.337 223.148 194.733C221.921 191.755 215.784 180.758 215.784 180.758L204.33 189.579Z" fill="url(#paint4_linear_102_9)"/>
<path d="M203.103 192.328L211.012 197.711C211.012 197.711 213.33 197.139 215.375 195.764C218.512 193.473 220.966 189.579 220.966 189.579L214.693 176.978L203.103 192.328Z" fill="#098256"/>
<path d="M191.512 187.517C191.512 187.517 189.193 191.526 187.83 194.046C186.33 196.795 185.512 198.055 185.512 200.689C185.512 203.439 184.83 207.906 181.693 214.664C180.466 217.299 175.284 229.441 175.284 229.441L181.012 233.335C181.012 233.335 189.466 219.933 193.148 214.893C197.512 209.051 194.921 204.355 196.557 201.491C198.193 198.628 201.875 195.879 201.875 195.879C201.875 195.879 193.421 191.411 191.512 187.517Z" fill="url(#paint5_linear_102_9)"/>
<path d="M195.466 174.688C195.466 174.688 193.693 180.3 193.421 180.988C190.693 186.486 187.83 194.046 187.83 194.046C187.83 194.046 189.466 196.222 193.421 197.597C198.057 199.315 202.012 199.315 202.012 199.315C202.012 199.315 209.648 188.662 212.239 185.455C216.193 180.758 215.784 173.657 215.784 173.657L195.466 174.688Z" fill="url(#paint6_linear_102_9)"/>
<path d="M201.739 140.209C199.966 140.896 197.375 141.813 195.33 143.875C193.83 145.364 193.284 150.404 193.421 153.726C193.557 155.787 194.103 165.638 195.466 168.96C196.693 171.709 195.466 174.688 195.466 174.688C195.466 174.688 202.284 175.718 206.512 175.718C213.057 175.718 215.784 173.657 215.784 173.657C215.784 173.657 216.193 170.449 213.193 162.546C212.239 160.026 215.921 151.893 216.466 150.976C217.693 151.32 220.012 153.038 220.012 153.038C220.012 153.038 221.103 149.258 225.33 146.624C222.875 144.333 220.966 143.073 218.375 140.095C216.193 137.575 212.375 137.46 209.784 137.46C208.284 137.918 204.875 140.438 203.375 141.011C202.012 141.469 201.739 140.896 201.739 140.209Z" fill="url(#paint7_linear_102_9)"/>
<path d="M216.33 150.977C216.33 150.977 211.693 149.029 210.057 150.289C208.557 151.32 208.284 153.153 209.239 155.673C210.193 157.964 211.966 158.766 213.057 160.026C213.33 156.475 216.33 150.977 216.33 150.977Z" fill="#972AED"/>
<path d="M230.103 153.267C229.012 151.664 225.193 146.624 225.193 146.624C225.193 146.624 223.966 146.967 222.193 148.686C220.693 150.06 220.148 152.58 220.148 152.58L221.648 154.413C221.648 154.413 214.148 158.651 210.193 160.14C208.012 160.942 205.966 160.598 204.739 160.713C203.103 160.942 199.557 161.858 200.921 163.347C200.648 164.035 200.921 164.951 201.739 165.18C201.057 166.097 201.875 166.669 202.421 166.784C202.012 167.929 203.239 167.586 205.421 167.013C208.284 166.211 209.375 166.669 212.103 164.951C212.512 164.722 215.103 163.691 216.739 163.347C223.693 161.629 224.648 160.827 225.875 160.14C227.784 158.995 229.693 157.391 230.784 156.704C232.284 155.673 231.057 154.757 230.103 153.267Z" fill="url(#paint8_linear_102_9)"/>
<path d="M184.83 227.493C184.148 227.608 184.148 229.097 183.193 229.326C182.375 229.67 180.739 227.951 179.648 227.493C179.648 227.379 179.648 227.379 179.512 227.379V227.264C179.512 227.264 179.375 226.462 178.421 225.431C177.466 224.515 175.83 223.942 175.83 223.942C174.739 223.484 175.284 226.004 175.557 227.379C174.466 227.951 170.648 229.899 169.148 230.242C167.375 230.586 165.33 230.013 165.33 230.013C165.33 230.013 164.648 230.815 164.103 231.617C163.421 232.762 164.375 233.221 165.603 233.908C166.83 234.481 169.284 236.084 172.557 236.428C175.83 236.772 177.603 235.626 178.284 235.855C178.966 236.084 179.512 237.115 179.512 237.115C179.512 237.115 181.693 237.23 184.012 237.115C185.648 237.001 187.012 235.053 187.012 234.71C186.875 234.366 185.648 227.379 184.83 227.493Z" fill="url(#paint9_linear_102_9)"/>
<path d="M164.103 231.617C164.103 231.617 168.057 234.366 172.284 234.595C176.512 234.824 178.966 233.679 180.603 234.595C182.239 235.512 186.193 234.251 186.193 234.251C186.193 234.251 183.057 235.053 181.012 234.137C178.557 233.106 175.148 234.137 172.148 234.022C170.103 233.908 164.375 231.273 164.375 231.273L164.103 231.617Z" fill="#972AED"/>
<path d="M170.375 229.899C170.375 229.899 171.193 230.357 172.693 231.273C174.057 232.075 174.875 232.304 174.875 232.304C174.875 232.304 173.921 231.273 172.693 230.471C172.284 230.242 171.193 229.67 171.193 229.67L170.375 229.899Z" fill="white"/>
<path d="M172.557 228.982C172.557 228.982 174.193 229.899 174.739 230.242C175.284 230.586 176.648 231.617 176.648 231.617C176.648 231.617 175.693 230.128 175.012 229.67C174.603 229.326 172.966 228.639 172.966 228.639L172.557 228.982Z" fill="white"/>
<path d="M174.466 228.066C174.466 228.066 176.103 228.982 176.648 229.326C177.193 229.67 178.557 230.701 178.557 230.701C178.557 230.701 177.603 229.211 177.057 228.753C176.648 228.41 175.012 227.722 175.012 227.722L174.466 228.066Z" fill="white"/>
<path d="M254.375 211.228C253.966 211.228 245.512 210.77 245.512 211.342C245.512 211.915 247.148 212.259 247.284 213.06C247.421 213.862 245.103 214.779 244.421 215.58C244.284 215.695 244.284 215.695 244.284 215.81L244.148 215.695C244.148 215.695 243.057 215.695 241.83 216.268C240.603 216.84 239.512 218.1 239.512 218.1C238.693 218.902 241.83 219.017 243.466 219.017C243.875 220.048 245.375 223.599 245.375 224.859C245.375 226.348 244.284 227.951 244.284 227.951C244.284 227.951 245.103 228.753 245.921 229.326C247.012 230.128 247.83 229.441 248.921 228.639C249.875 227.837 252.193 226.119 253.421 223.484C254.512 220.964 253.557 219.246 253.966 218.673C254.375 218.215 255.603 217.986 255.603 217.986C255.603 217.986 256.148 216.268 256.557 214.206C256.693 212.831 254.784 211.342 254.375 211.228Z" fill="url(#paint10_linear_102_9)"/>
<path d="M245.921 229.326C245.921 229.326 250.012 226.577 251.103 223.255C252.193 219.819 251.375 217.642 252.875 216.497C254.239 215.351 253.557 211.8 253.557 211.8C253.557 211.8 253.83 214.435 252.33 216.039C250.557 217.871 251.103 220.85 250.284 223.255C249.739 224.859 245.512 229.097 245.512 229.097L245.921 229.326Z" fill="#972AED"/>
<path d="M245.239 223.942C245.239 223.942 246.057 223.37 247.284 222.339C248.512 221.308 248.921 220.735 248.921 220.735C248.921 220.735 247.557 221.308 246.33 222.11C245.921 222.339 245.103 223.255 245.103 223.255L245.239 223.942Z" fill="white"/>
<path d="M244.557 221.88C244.557 221.88 246.057 220.735 246.466 220.277C247.012 219.819 248.512 219.017 248.512 219.017C248.512 219.017 246.603 219.475 245.921 219.933C245.512 220.162 244.421 221.308 244.421 221.308L244.557 221.88Z" fill="white"/>
<path d="M243.875 220.162C243.875 220.162 245.375 219.017 245.784 218.559C246.33 218.1 247.83 217.299 247.83 217.299C247.83 217.299 245.921 217.757 245.239 218.215C244.83 218.444 243.739 219.59 243.739 219.59L243.875 220.162Z" fill="white"/>
<path d="M197.784 123.715C197.239 123.715 196.557 124.058 196.966 124.287C197.239 124.402 198.057 124.287 198.875 124.516C199.83 124.86 201.057 125.662 201.057 125.662C201.057 125.662 200.103 123.6 197.784 123.715Z" fill="#5B1B1B"/>
<path d="M205.284 129.098C205.284 129.098 206.239 127.495 207.057 127.724C207.739 127.953 207.739 128.869 207.739 128.869C207.739 128.869 207.193 128.411 206.648 128.64C206.103 128.869 206.512 129.327 206.648 129.556C206.921 130.129 205.83 130.473 205.83 130.473C205.83 130.473 205.966 129.9 205.966 129.556C205.83 129.098 205.284 129.098 205.284 129.098Z" fill="url(#paint11_linear_102_9)"/>
<path d="M200.375 135.055C200.375 135.055 203.103 134.367 204.193 133.68C205.83 132.649 207.739 131.16 207.739 131.16C207.739 131.16 206.512 133.566 205.421 134.482C203.648 135.971 201.603 136.544 201.603 136.544C201.603 136.544 201.193 135.284 200.375 135.055Z" fill="url(#paint12_linear_102_9)"/>
<path d="M188.103 198.857C188.103 198.857 187.012 200.231 187.148 200.804C187.284 201.262 188.375 202.179 188.375 202.179L188.103 198.857Z" fill="#FFA08D"/>
<path d="M229.284 155.673C227.921 155.444 227.239 156.933 227.239 156.933C227.239 156.933 229.284 156.475 229.284 155.673Z" fill="url(#paint13_linear_102_9)"/>
<path d="M197.921 126.12C197.921 126.12 197.784 126.807 197.921 127.151C198.057 127.609 198.739 127.609 199.148 127.495C199.557 127.38 200.103 127.151 200.103 127.151L199.012 126.578L197.921 126.12Z" fill="white"/>
<path d="M197.784 126.12C197.784 126.12 197.512 127.151 198.057 127.265C198.739 127.495 198.603 126.349 198.603 126.349L197.784 126.12Z" fill="#3794B5"/>
<path d="M198.33 126.807C198.33 126.922 198.193 127.036 198.057 127.036C197.921 127.036 197.784 126.922 197.784 126.807C197.784 126.693 197.921 126.578 198.057 126.578C198.193 126.578 198.33 126.693 198.33 126.807Z" fill="#5B1B1B"/>
<path d="M198.193 126.578C198.193 126.693 198.057 126.807 198.057 126.807C198.057 126.807 197.921 126.693 197.921 126.578C197.921 126.464 198.057 126.349 198.057 126.349C198.057 126.349 198.193 126.464 198.193 126.578Z" fill="white"/>
<path d="M195.193 130.015C195.193 130.015 195.33 130.129 195.603 130.358C195.875 130.587 196.148 130.358 195.875 130.129C195.739 130.015 195.193 130.015 195.193 130.015Z" fill="#FFA08D"/>
<path d="M196.012 131.962C196.012 131.962 196.966 132.306 197.375 132.191C197.648 132.076 197.784 131.962 197.375 131.962C196.693 131.962 196.012 131.962 196.012 131.962Z" fill="#FFA08D"/>
<path d="M197.648 125.776C197.512 125.662 197.375 125.891 197.512 126.005C197.784 126.349 198.466 126.578 199.012 126.807C199.421 127.036 200.103 127.036 200.103 127.036C200.103 127.036 198.466 126.12 197.648 125.776Z" fill="#5B1B1B"/>
<path d="M197.512 125.318C197.512 125.318 198.193 125.662 198.603 125.891C199.148 126.12 199.557 126.349 199.557 126.349C199.557 126.349 198.193 125.433 197.921 125.204C197.512 125.089 197.512 125.318 197.512 125.318Z" fill="url(#paint14_linear_102_9)"/>
<path d="M195.193 120.049L195.875 120.737C195.875 120.737 200.103 118.675 202.83 118.217C205.557 117.758 207.466 118.331 208.83 119.247C210.057 120.049 212.103 121.767 212.239 123.257C212.512 125.547 212.239 127.953 212.239 127.953C212.239 127.953 214.557 123.371 211.421 120.278C208.284 117.186 204.739 116.957 201.739 117.758C199.557 118.446 195.193 120.049 195.193 120.049Z" fill="url(#paint15_linear_102_9)"/>
<path d="M193.966 180.644C179.784 179.842 168.466 178.353 159.875 176.52C151.284 174.802 137.375 167.929 135.875 167.242C134.375 166.669 132.193 167.357 132.193 167.357C130.148 169.877 132.603 171.48 135.057 172.969C139.966 176.062 152.648 180.415 154.284 181.102C156.057 181.789 156.057 182.477 155.648 183.966C155.103 186.486 153.875 190.724 153.875 190.724H167.375C167.375 190.724 167.784 189.006 168.33 187.975C168.875 186.6 171.057 187.059 174.875 187.059C178.693 187.059 185.375 187.173 189.466 187.173C192.875 187.173 194.921 185.569 197.103 184.08C198.33 183.278 199.012 182.591 199.421 182.018C197.648 181.331 195.603 180.758 193.966 180.644ZM187.421 185.226C183.466 185.226 172.83 184.997 169.966 184.882C169.557 184.882 169.284 184.538 169.421 184.195L170.103 181.56C170.239 181.217 170.648 180.988 171.057 180.988C173.921 181.217 184.421 182.018 191.239 182.362C195.739 182.477 192.603 185.226 187.421 185.226Z" fill="#5B1B1B"/>
<path d="M135.875 167.357C137.375 167.929 151.284 174.802 159.875 176.635C168.466 178.353 179.784 179.842 193.966 180.758C195.603 180.873 197.512 181.331 199.284 181.904C200.239 180.186 196.966 179.613 189.739 179.04C185.239 178.697 171.193 177.78 161.784 175.375C157.148 174.229 142.148 168.731 137.784 166.669C135.603 165.638 133.966 165.409 132.193 167.471C132.193 167.471 134.375 166.784 135.875 167.357Z" fill="#972AED"/>
<path d="M149.921 223.942C149.239 223.828 148.83 223.14 148.966 222.568L153.193 208.822C153.33 208.25 154.148 207.906 154.83 208.02C155.512 208.135 155.921 208.822 155.784 209.395L151.557 223.14C151.421 223.713 150.739 224.171 149.921 223.942Z" fill="white"/>
<path d="M140.784 239.062C140.784 239.062 139.83 241.468 139.148 243.301C138.603 244.561 136.83 244.675 133.148 244.675C131.648 244.675 128.239 244.675 126.739 244.79C124.421 244.904 122.375 246.164 121.83 248.112L121.012 251.204H150.603L153.466 239.062H140.784Z" fill="#CEA5B1"/>
<path d="M140.784 239.062L140.103 241.01H153.057L153.603 239.062H140.784Z" fill="#E2BFCA"/>
</g>
<path d="M113.23 291.643C113.23 291.226 113.374 290.878 113.66 290.598C113.953 290.318 114.34 290.178 114.822 290.178C115.304 290.178 115.688 290.318 115.975 290.598C116.268 290.878 116.414 291.226 116.414 291.643C116.414 292.059 116.268 292.408 115.975 292.688C115.688 292.967 115.304 293.107 114.822 293.107C114.34 293.107 113.953 292.967 113.66 292.688C113.374 292.408 113.23 292.059 113.23 291.643ZM119.031 291.643C119.031 291.226 119.174 290.878 119.461 290.598C119.754 290.318 120.141 290.178 120.623 290.178C121.105 290.178 121.489 290.318 121.775 290.598C122.068 290.878 122.215 291.226 122.215 291.643C122.215 292.059 122.068 292.408 121.775 292.688C121.489 292.967 121.105 293.107 120.623 293.107C120.141 293.107 119.754 292.967 119.461 292.688C119.174 292.408 119.031 292.059 119.031 291.643ZM124.832 291.643C124.832 291.226 124.975 290.878 125.262 290.598C125.555 290.318 125.942 290.178 126.424 290.178C126.906 290.178 127.29 290.318 127.576 290.598C127.869 290.878 128.016 291.226 128.016 291.643C128.016 292.059 127.869 292.408 127.576 292.688C127.29 292.967 126.906 293.107 126.424 293.107C125.942 293.107 125.555 292.967 125.262 292.688C124.975 292.408 124.832 292.059 124.832 291.643ZM148.25 284.738V293H145.438V282.434H148.084L148.25 284.738ZM151.434 282.365L151.385 284.973C151.248 284.953 151.082 284.937 150.887 284.924C150.698 284.904 150.525 284.895 150.369 284.895C149.972 284.895 149.627 284.947 149.334 285.051C149.048 285.148 148.807 285.295 148.611 285.49C148.423 285.686 148.279 285.923 148.182 286.203C148.09 286.483 148.038 286.802 148.025 287.16L147.459 286.984C147.459 286.301 147.527 285.673 147.664 285.1C147.801 284.52 147.999 284.016 148.26 283.586C148.527 283.156 148.852 282.824 149.236 282.59C149.62 282.355 150.06 282.238 150.555 282.238C150.711 282.238 150.87 282.251 151.033 282.277C151.196 282.297 151.329 282.326 151.434 282.365ZM159.012 290.471V282.434H161.824V293H159.178L159.012 290.471ZM159.324 288.303L160.154 288.283C160.154 288.986 160.073 289.641 159.91 290.246C159.747 290.845 159.503 291.366 159.178 291.809C158.852 292.245 158.442 292.587 157.947 292.834C157.452 293.075 156.87 293.195 156.199 293.195C155.685 293.195 155.21 293.124 154.773 292.98C154.344 292.831 153.973 292.6 153.66 292.287C153.354 291.968 153.113 291.561 152.938 291.066C152.768 290.565 152.684 289.963 152.684 289.26V282.434H155.496V289.279C155.496 289.592 155.532 289.855 155.604 290.07C155.682 290.285 155.789 290.461 155.926 290.598C156.062 290.734 156.222 290.832 156.404 290.891C156.593 290.949 156.801 290.979 157.029 290.979C157.609 290.979 158.064 290.861 158.396 290.627C158.735 290.393 158.973 290.074 159.109 289.67C159.253 289.26 159.324 288.804 159.324 288.303ZM166.727 284.689V293H163.914V282.434H166.551L166.727 284.689ZM166.316 287.346H165.555C165.555 286.564 165.656 285.861 165.857 285.236C166.059 284.605 166.342 284.068 166.707 283.625C167.072 283.176 167.505 282.834 168.006 282.6C168.514 282.359 169.08 282.238 169.705 282.238C170.2 282.238 170.652 282.31 171.062 282.453C171.473 282.596 171.824 282.824 172.117 283.137C172.417 283.449 172.645 283.863 172.801 284.377C172.964 284.891 173.045 285.52 173.045 286.262V293H170.213V286.252C170.213 285.783 170.148 285.419 170.018 285.158C169.887 284.898 169.695 284.715 169.441 284.611C169.194 284.501 168.888 284.445 168.523 284.445C168.146 284.445 167.817 284.52 167.537 284.67C167.264 284.82 167.036 285.028 166.854 285.295C166.678 285.555 166.544 285.861 166.453 286.213C166.362 286.564 166.316 286.942 166.316 287.346ZM185.867 290.617V285.91C185.867 285.572 185.812 285.282 185.701 285.041C185.59 284.794 185.418 284.602 185.184 284.465C184.956 284.328 184.66 284.26 184.295 284.26C183.982 284.26 183.712 284.315 183.484 284.426C183.257 284.53 183.081 284.683 182.957 284.885C182.833 285.08 182.771 285.311 182.771 285.578H179.959C179.959 285.129 180.063 284.702 180.271 284.299C180.48 283.895 180.783 283.54 181.18 283.234C181.577 282.922 182.049 282.678 182.596 282.502C183.149 282.326 183.768 282.238 184.451 282.238C185.271 282.238 186.001 282.375 186.639 282.648C187.277 282.922 187.778 283.332 188.143 283.879C188.514 284.426 188.699 285.109 188.699 285.93V290.451C188.699 291.031 188.735 291.506 188.807 291.877C188.878 292.242 188.982 292.561 189.119 292.834V293H186.277C186.141 292.714 186.036 292.355 185.965 291.926C185.9 291.49 185.867 291.053 185.867 290.617ZM186.238 286.564L186.258 288.156H184.686C184.314 288.156 183.992 288.199 183.719 288.283C183.445 288.368 183.221 288.488 183.045 288.645C182.869 288.794 182.739 288.97 182.654 289.172C182.576 289.374 182.537 289.595 182.537 289.836C182.537 290.077 182.592 290.295 182.703 290.49C182.814 290.679 182.973 290.829 183.182 290.939C183.39 291.044 183.634 291.096 183.914 291.096C184.337 291.096 184.705 291.011 185.018 290.842C185.33 290.673 185.571 290.464 185.74 290.217C185.916 289.969 186.007 289.735 186.014 289.514L186.756 290.705C186.652 290.972 186.508 291.249 186.326 291.535C186.15 291.822 185.926 292.092 185.652 292.346C185.379 292.593 185.05 292.798 184.666 292.961C184.282 293.117 183.826 293.195 183.299 293.195C182.628 293.195 182.02 293.062 181.473 292.795C180.932 292.521 180.503 292.147 180.184 291.672C179.871 291.19 179.715 290.643 179.715 290.031C179.715 289.478 179.819 288.986 180.027 288.557C180.236 288.127 180.542 287.766 180.945 287.473C181.355 287.173 181.867 286.949 182.479 286.799C183.09 286.643 183.8 286.564 184.607 286.564H186.238ZM193.621 284.689V293H190.809V282.434H193.445L193.621 284.689ZM193.211 287.346H192.449C192.449 286.564 192.55 285.861 192.752 285.236C192.954 284.605 193.237 284.068 193.602 283.625C193.966 283.176 194.399 282.834 194.9 282.6C195.408 282.359 195.975 282.238 196.6 282.238C197.094 282.238 197.547 282.31 197.957 282.453C198.367 282.596 198.719 282.824 199.012 283.137C199.311 283.449 199.539 283.863 199.695 284.377C199.858 284.891 199.939 285.52 199.939 286.262V293H197.107V286.252C197.107 285.783 197.042 285.419 196.912 285.158C196.782 284.898 196.59 284.715 196.336 284.611C196.089 284.501 195.783 284.445 195.418 284.445C195.04 284.445 194.712 284.52 194.432 284.67C194.158 284.82 193.93 285.028 193.748 285.295C193.572 285.555 193.439 285.861 193.348 286.213C193.257 286.564 193.211 286.942 193.211 287.346ZM208.318 290.695V278H211.15V293H208.602L208.318 290.695ZM201.639 287.844V287.639C201.639 286.831 201.73 286.099 201.912 285.441C202.094 284.777 202.361 284.208 202.713 283.732C203.064 283.257 203.497 282.889 204.012 282.629C204.526 282.368 205.112 282.238 205.77 282.238C206.388 282.238 206.928 282.368 207.391 282.629C207.859 282.889 208.257 283.26 208.582 283.742C208.914 284.217 209.181 284.781 209.383 285.432C209.585 286.076 209.731 286.783 209.822 287.551V288C209.731 288.736 209.585 289.419 209.383 290.051C209.181 290.682 208.914 291.236 208.582 291.711C208.257 292.18 207.859 292.544 207.391 292.805C206.922 293.065 206.375 293.195 205.75 293.195C205.092 293.195 204.507 293.062 203.992 292.795C203.484 292.528 203.055 292.154 202.703 291.672C202.358 291.19 202.094 290.624 201.912 289.973C201.73 289.322 201.639 288.612 201.639 287.844ZM204.451 287.639V287.844C204.451 288.28 204.484 288.687 204.549 289.064C204.62 289.442 204.734 289.777 204.891 290.07C205.053 290.357 205.262 290.581 205.516 290.744C205.776 290.9 206.092 290.979 206.463 290.979C206.945 290.979 207.342 290.871 207.654 290.656C207.967 290.435 208.204 290.132 208.367 289.748C208.536 289.364 208.634 288.921 208.66 288.42V287.141C208.641 286.73 208.582 286.363 208.484 286.037C208.393 285.705 208.257 285.422 208.074 285.188C207.898 284.953 207.677 284.771 207.41 284.641C207.15 284.51 206.84 284.445 206.482 284.445C206.118 284.445 205.805 284.53 205.545 284.699C205.285 284.862 205.073 285.087 204.91 285.373C204.754 285.66 204.637 285.998 204.559 286.389C204.487 286.773 204.451 287.189 204.451 287.639ZM221.297 278V293H218.475V278H221.297ZM223.172 287.824V287.619C223.172 286.844 223.283 286.132 223.504 285.48C223.725 284.823 224.048 284.253 224.471 283.771C224.894 283.29 225.415 282.915 226.033 282.648C226.652 282.375 227.361 282.238 228.162 282.238C228.963 282.238 229.676 282.375 230.301 282.648C230.926 282.915 231.45 283.29 231.873 283.771C232.303 284.253 232.628 284.823 232.85 285.48C233.071 286.132 233.182 286.844 233.182 287.619V287.824C233.182 288.592 233.071 289.305 232.85 289.963C232.628 290.614 232.303 291.184 231.873 291.672C231.45 292.154 230.929 292.528 230.311 292.795C229.692 293.062 228.982 293.195 228.182 293.195C227.381 293.195 226.668 293.062 226.043 292.795C225.424 292.528 224.9 292.154 224.471 291.672C224.048 291.184 223.725 290.614 223.504 289.963C223.283 289.305 223.172 288.592 223.172 287.824ZM225.984 287.619V287.824C225.984 288.267 226.023 288.68 226.102 289.064C226.18 289.449 226.303 289.787 226.473 290.08C226.648 290.367 226.876 290.591 227.156 290.754C227.436 290.917 227.778 290.998 228.182 290.998C228.572 290.998 228.908 290.917 229.188 290.754C229.467 290.591 229.692 290.367 229.861 290.08C230.031 289.787 230.154 289.449 230.232 289.064C230.317 288.68 230.359 288.267 230.359 287.824V287.619C230.359 287.189 230.317 286.786 230.232 286.408C230.154 286.024 230.027 285.686 229.852 285.393C229.682 285.093 229.458 284.859 229.178 284.689C228.898 284.52 228.559 284.436 228.162 284.436C227.765 284.436 227.426 284.52 227.146 284.689C226.873 284.859 226.648 285.093 226.473 285.393C226.303 285.686 226.18 286.024 226.102 286.408C226.023 286.786 225.984 287.189 225.984 287.619ZM241.6 282.434H244.148V292.648C244.148 293.612 243.934 294.429 243.504 295.1C243.081 295.777 242.488 296.288 241.727 296.633C240.965 296.984 240.079 297.16 239.07 297.16C238.628 297.16 238.159 297.102 237.664 296.984C237.176 296.867 236.707 296.685 236.258 296.438C235.815 296.19 235.444 295.878 235.145 295.5L236.385 293.84C236.71 294.217 237.088 294.51 237.518 294.719C237.947 294.934 238.423 295.041 238.943 295.041C239.451 295.041 239.881 294.947 240.232 294.758C240.584 294.576 240.854 294.305 241.043 293.947C241.232 293.596 241.326 293.169 241.326 292.668V284.875L241.6 282.434ZM234.49 287.844V287.639C234.49 286.831 234.588 286.099 234.783 285.441C234.985 284.777 235.268 284.208 235.633 283.732C236.004 283.257 236.453 282.889 236.98 282.629C237.508 282.368 238.104 282.238 238.768 282.238C239.471 282.238 240.06 282.368 240.535 282.629C241.01 282.889 241.401 283.26 241.707 283.742C242.013 284.217 242.251 284.781 242.42 285.432C242.596 286.076 242.732 286.783 242.83 287.551V288C242.732 288.736 242.586 289.419 242.391 290.051C242.195 290.682 241.938 291.236 241.619 291.711C241.3 292.18 240.903 292.544 240.428 292.805C239.959 293.065 239.399 293.195 238.748 293.195C238.097 293.195 237.508 293.062 236.98 292.795C236.46 292.528 236.014 292.154 235.643 291.672C235.271 291.19 234.985 290.624 234.783 289.973C234.588 289.322 234.49 288.612 234.49 287.844ZM237.303 287.639V287.844C237.303 288.28 237.345 288.687 237.43 289.064C237.514 289.442 237.645 289.777 237.82 290.07C238.003 290.357 238.227 290.581 238.494 290.744C238.768 290.9 239.09 290.979 239.461 290.979C239.975 290.979 240.395 290.871 240.721 290.656C241.046 290.435 241.29 290.132 241.453 289.748C241.616 289.364 241.71 288.921 241.736 288.42V287.141C241.723 286.73 241.668 286.363 241.57 286.037C241.473 285.705 241.336 285.422 241.16 285.188C240.984 284.953 240.757 284.771 240.477 284.641C240.197 284.51 239.865 284.445 239.48 284.445C239.109 284.445 238.787 284.53 238.514 284.699C238.247 284.862 238.022 285.087 237.84 285.373C237.664 285.66 237.531 285.998 237.439 286.389C237.348 286.773 237.303 287.189 237.303 287.639ZM256.434 291.643C256.434 291.226 256.577 290.878 256.863 290.598C257.156 290.318 257.544 290.178 258.025 290.178C258.507 290.178 258.891 290.318 259.178 290.598C259.471 290.878 259.617 291.226 259.617 291.643C259.617 292.059 259.471 292.408 259.178 292.688C258.891 292.967 258.507 293.107 258.025 293.107C257.544 293.107 257.156 292.967 256.863 292.688C256.577 292.408 256.434 292.059 256.434 291.643ZM262.234 291.643C262.234 291.226 262.378 290.878 262.664 290.598C262.957 290.318 263.344 290.178 263.826 290.178C264.308 290.178 264.692 290.318 264.979 290.598C265.271 290.878 265.418 291.226 265.418 291.643C265.418 292.059 265.271 292.408 264.979 292.688C264.692 292.967 264.308 293.107 263.826 293.107C263.344 293.107 262.957 292.967 262.664 292.688C262.378 292.408 262.234 292.059 262.234 291.643ZM268.035 291.643C268.035 291.226 268.178 290.878 268.465 290.598C268.758 290.318 269.145 290.178 269.627 290.178C270.109 290.178 270.493 290.318 270.779 290.598C271.072 290.878 271.219 291.226 271.219 291.643C271.219 292.059 271.072 292.408 270.779 292.688C270.493 292.967 270.109 293.107 269.627 293.107C269.145 293.107 268.758 292.967 268.465 292.688C268.178 292.408 268.035 292.059 268.035 291.643Z" fill="#972AED"/>
</g>
<defs>
<filter id="filter0_d_102_9" x="0" y="0" width="387" height="506" filterUnits="userSpaceOnUse" color-interpolation-filters="sRGB">
<feFlood flood-opacity="0" result="BackgroundImageFix"/>
<feColorMatrix in="SourceAlpha" type="matrix" values="0 0 0 0 0 0 0 0 0 0 0 0 0 0 0 0 0 0 127 0" result="hardAlpha"/>
<feOffset dy="21"/>
<feGaussianBlur stdDeviation="7"/>
<feComposite in2="hardAlpha" operator="out"/>
<feColorMatrix type="matrix" values="0 0 0 0 0.333333 0 0 0 0 0 0 0 0 0 0.670588 0 0 0 1 0"/>
<feBlend mode="normal" in2="BackgroundImageFix" result="effect1_dropShadow_102_9"/>
<feBlend mode="normal" in="SourceGraphic" in2="effect1_dropShadow_102_9" result="shape"/>
</filter>
<filter id="filter1_d_102_9" x="111" y="106" width="149" height="146.79" filterUnits="userSpaceOnUse" color-interpolation-filters="sRGB">
<feFlood flood-opacity="0" result="BackgroundImageFix"/>
<feColorMatrix in="SourceAlpha" type="matrix" values="0 0 0 0 0 0 0 0 0 0 0 0 0 0 0 0 0 0 127 0" result="hardAlpha"/>
<feOffset dy="9"/>
<feGaussianBlur stdDeviation="2"/>
<feComposite in2="hardAlpha" operator="out"/>
<feColorMatrix type="matrix" values="0 0 0 0 0.894118 0 0 0 0 0.54902 0 0 0 0 0.470588 0 0 0 1 0"/>
<feBlend mode="darken" in2="BackgroundImageFix" result="effect1_dropShadow_102_9"/>
<feBlend mode="normal" in="SourceGraphic" in2="effect1_dropShadow_102_9" result="shape"/>
</filter>
<linearGradient id="paint0_linear_102_9" x1="200.046" y1="136.05" x2="210.115" y2="136.05" gradientUnits="userSpaceOnUse">
<stop stop-color="#FFC5B3"/>
<stop offset="0.3645" stop-color="#FBBBA8"/>
<stop offset="1" stop-color="#EFA08B"/>
</linearGradient>
<linearGradient id="paint1_linear_102_9" x1="183.664" y1="151.607" x2="197.769" y2="151.607" gradientUnits="userSpaceOnUse">
<stop stop-color="#EFA08B"/>
<stop offset="0.6405" stop-color="#E48C78"/>
<stop offset="0.9948" stop-color="#DD7F6C"/>
</linearGradient>
<linearGradient id="paint2_linear_102_9" x1="194.138" y1="127.469" x2="210.115" y2="127.469" gradientUnits="userSpaceOnUse">
<stop stop-color="#FFC5B3"/>
<stop offset="0.3645" stop-color="#FBBBA8"/>
<stop offset="1" stop-color="#EFA08B"/>
</linearGradient>
<linearGradient id="paint3_linear_102_9" x1="204.227" y1="117.629" x2="204.227" y2="134.714" gradientUnits="userSpaceOnUse">
<stop stop-color="#7B2B08"/>
<stop offset="0.0674362" stop-color="#792A08"/>
<stop offset="0.5419" stop-color="#6C2207"/>
<stop offset="1" stop-color="#682007"/>
</linearGradient>
<linearGradient id="paint4_linear_102_9" x1="226.102" y1="180.649" x2="226.102" y2="218.303" gradientUnits="userSpaceOnUse">
<stop stop-color="#FFC5B3"/>
<stop offset="0.3645" stop-color="#FBBBA8"/>
<stop offset="1" stop-color="#EFA08B"/>
</linearGradient>
<linearGradient id="paint5_linear_102_9" x1="188.766" y1="187.48" x2="188.766" y2="233.237" gradientUnits="userSpaceOnUse">
<stop stop-color="#FFC5B3"/>
<stop offset="0.3645" stop-color="#FBBBA8"/>
<stop offset="1" stop-color="#EFA08B"/>
</linearGradient>
<linearGradient id="paint6_linear_102_9" x1="201.855" y1="173.627" x2="201.855" y2="199.299" gradientUnits="userSpaceOnUse">
<stop stop-color="#CEA5B1"/>
<stop offset="0.4562" stop-color="#119568"/>
<stop offset="1" stop-color="#098256"/>
</linearGradient>
<linearGradient id="paint7_linear_102_9" x1="209.297" y1="137.416" x2="209.297" y2="175.704" gradientUnits="userSpaceOnUse">
<stop stop-color="#972AED"/>
<stop offset="0.5426" stop-color="#65BACE"/>
<stop offset="1" stop-color="#55B1C6"/>
</linearGradient>
<linearGradient id="paint8_linear_102_9" x1="200.497" y1="157.05" x2="231.443" y2="157.05" gradientUnits="userSpaceOnUse">
<stop stop-color="#FFC5B3"/>
<stop offset="0.3645" stop-color="#FBBBA8"/>
<stop offset="1" stop-color="#EFA08B"/>
</linearGradient>
<linearGradient id="paint9_linear_102_9" x1="163.888" y1="230.553" x2="186.924" y2="230.553" gradientUnits="userSpaceOnUse">
<stop stop-color="#7DC7DB"/>
<stop offset="0.5426" stop-color="#65BACE"/>
<stop offset="1" stop-color="#55B1C6"/>
</linearGradient>
<linearGradient id="paint10_linear_102_9" x1="240.991" y1="223.058" x2="256.158" y2="212.878" gradientUnits="userSpaceOnUse">
<stop stop-color="#972AED"/>
<stop offset="0.5426" stop-color="#65BACE"/>
<stop offset="1" stop-color="#55B1C6"/>
</linearGradient>
<linearGradient id="paint11_linear_102_9" x1="206.528" y1="130.403" x2="206.528" y2="127.648" gradientUnits="userSpaceOnUse">
<stop stop-color="#EFA08B"/>
<stop offset="0.2778" stop-color="#E7917D"/>
<stop offset="0.6579" stop-color="#E08470"/>
<stop offset="0.9948" stop-color="#DD7F6C"/>
</linearGradient>
<linearGradient id="paint12_linear_102_9" x1="200.426" y1="133.807" x2="207.716" y2="133.807" gradientUnits="userSpaceOnUse">
<stop stop-color="#EFA08B"/>
<stop offset="0.6405" stop-color="#E48C78"/>
<stop offset="0.9948" stop-color="#DD7F6C"/>
</linearGradient>
<linearGradient id="paint13_linear_102_9" x1="227.218" y1="156.292" x2="229.306" y2="156.292" gradientUnits="userSpaceOnUse">
<stop stop-color="#EFA08B"/>
<stop offset="0.0862007" stop-color="#ED9C87"/>
<stop offset="0.6354" stop-color="#E18773"/>
<stop offset="0.9948" stop-color="#DD7F6C"/>
</linearGradient>
<linearGradient id="paint14_linear_102_9" x1="197.568" y1="125.774" x2="199.684" y2="125.774" gradientUnits="userSpaceOnUse">
<stop stop-color="#EFA08B"/>
<stop offset="0.156" stop-color="#EB9984"/>
<stop offset="0.6493" stop-color="#E18672"/>
<stop offset="0.9948" stop-color="#DD7F6C"/>
</linearGradient>
<linearGradient id="paint15_linear_102_9" x1="195.259" y1="122.709" x2="213.1" y2="122.709" gradientUnits="userSpaceOnUse">
<stop stop-color="#B24E2B"/>
<stop offset="0.3843" stop-color="#AA4727"/>
<stop offset="1" stop-color="#A34123"/>
</linearGradient>
<clipPath id="clip0_102_9">
<rect width="141" height="133.79" fill="white" transform="translate(115 106)"/>
</clipPath>
</defs>
</svg>
