<svg width="108" height="68" viewBox="0 0 108 68" fill="none" xmlns="http://www.w3.org/2000/svg">
<g filter="url(#filter0_d_112_526)">
<rect x="15" y="16" width="78" height="38" rx="4" fill="white"/>
</g>
<path d="M65.6161 38.4453V40H59.9052V38.4453H65.6161ZM60.4521 28.625V40H58.4911V28.625H60.4521ZM81.4365 31.5469H83.1474V39.7656C83.1474 40.526 82.9859 41.1719 82.663 41.7031C82.3401 42.2344 81.8896 42.638 81.3115 42.9141C80.7333 43.1953 80.0641 43.3359 79.3036 43.3359C78.9807 43.3359 78.6213 43.2891 78.2255 43.1953C77.8349 43.1016 77.4547 42.9505 77.0849 42.7422C76.7203 42.5391 76.4156 42.2708 76.1708 41.9375L77.0536 40.8281C77.3557 41.1875 77.6891 41.4505 78.0536 41.6172C78.4182 41.7839 78.801 41.8672 79.2021 41.8672C79.6344 41.8672 80.0016 41.7865 80.3036 41.625C80.6109 41.4688 80.8479 41.237 81.0146 40.9297C81.1812 40.6224 81.2646 40.2474 81.2646 39.8047V33.4609L81.4365 31.5469ZM75.6943 35.8672V35.7031C75.6943 35.0625 75.7724 34.4792 75.9286 33.9531C76.0849 33.4219 76.3088 32.9661 76.6005 32.5859C76.8922 32.2005 77.2463 31.9062 77.663 31.7031C78.0797 31.4948 78.551 31.3906 79.0771 31.3906C79.624 31.3906 80.0901 31.4896 80.4755 31.6875C80.8661 31.8854 81.1917 32.1693 81.4521 32.5391C81.7125 32.9036 81.9156 33.3411 82.0615 33.8516C82.2125 34.3568 82.3245 34.9193 82.3974 35.5391V36.0625C82.3297 36.6667 82.2151 37.2188 82.0536 37.7188C81.8922 38.2188 81.6786 38.651 81.413 39.0156C81.1474 39.3802 80.8193 39.6615 80.4286 39.8594C80.0432 40.0573 79.5875 40.1562 79.0615 40.1562C78.5458 40.1562 78.0797 40.0495 77.663 39.8359C77.2516 39.6224 76.8974 39.3229 76.6005 38.9375C76.3088 38.5521 76.0849 38.099 75.9286 37.5781C75.7724 37.0521 75.6943 36.4818 75.6943 35.8672ZM77.5771 35.7031V35.8672C77.5771 36.2526 77.6135 36.612 77.6865 36.9453C77.7646 37.2786 77.8818 37.5729 78.038 37.8281C78.1995 38.0781 78.4026 38.276 78.6474 38.4219C78.8974 38.5625 79.1917 38.6328 79.5302 38.6328C79.9729 38.6328 80.3349 38.5391 80.6161 38.3516C80.9026 38.1641 81.1213 37.9115 81.2724 37.5938C81.4286 37.2708 81.538 36.9115 81.6005 36.5156V35.1016C81.5693 34.7943 81.5042 34.5078 81.4052 34.2422C81.3115 33.9766 81.1838 33.7448 81.0224 33.5469C80.8609 33.3438 80.6578 33.1875 80.413 33.0781C80.1682 32.9635 79.8792 32.9062 79.5458 32.9062C79.2073 32.9062 78.913 32.9792 78.663 33.125C78.413 33.2708 78.2073 33.4714 78.0458 33.7266C77.8896 33.9818 77.7724 34.2786 77.6943 34.6172C77.6161 34.9557 77.5771 35.3177 77.5771 35.7031Z" fill="#972AED"/>
<path d="M66.5849 35.8672V35.6875C66.5849 35.0781 66.6734 34.513 66.8505 33.9922C67.0276 33.4661 67.2828 33.0104 67.6161 32.625C67.9547 32.2344 68.3661 31.9323 68.8505 31.7188C69.3401 31.5 69.8922 31.3906 70.5068 31.3906C71.1266 31.3906 71.6786 31.5 72.163 31.7188C72.6526 31.9323 73.0667 32.2344 73.4052 32.625C73.7437 33.0104 74.0016 33.4661 74.1786 33.9922C74.3557 34.513 74.4443 35.0781 74.4443 35.6875V35.8672C74.4443 36.4766 74.3557 37.0417 74.1786 37.5625C74.0016 38.0833 73.7437 38.5391 73.4052 38.9297C73.0667 39.3151 72.6552 39.6172 72.1708 39.8359C71.6865 40.0495 71.137 40.1562 70.5224 40.1562C69.9026 40.1562 69.3479 40.0495 68.8583 39.8359C68.374 39.6172 67.9625 39.3151 67.624 38.9297C67.2854 38.5391 67.0276 38.0833 66.8505 37.5625C66.6734 37.0417 66.5849 36.4766 66.5849 35.8672ZM68.4677 35.6875V35.8672C68.4677 36.2474 68.5068 36.6068 68.5849 36.9453C68.663 37.2839 68.7854 37.5807 68.9521 37.8359C69.1187 38.0911 69.3323 38.2917 69.5927 38.4375C69.8531 38.5833 70.163 38.6562 70.5224 38.6562C70.8713 38.6562 71.1734 38.5833 71.4286 38.4375C71.6891 38.2917 71.9026 38.0911 72.0693 37.8359C72.2359 37.5807 72.3583 37.2839 72.4365 36.9453C72.5198 36.6068 72.5615 36.2474 72.5615 35.8672V35.6875C72.5615 35.3125 72.5198 34.9583 72.4365 34.625C72.3583 34.2865 72.2333 33.987 72.0615 33.7266C71.8948 33.4661 71.6812 33.263 71.4208 33.1172C71.1656 32.9661 70.8609 32.8906 70.5068 32.8906C70.1526 32.8906 69.8453 32.9661 69.5849 33.1172C69.3297 33.263 69.1187 33.4661 68.9521 33.7266C68.7854 33.987 68.663 34.2865 68.5849 34.625C68.5068 34.9583 68.4677 35.3125 68.4677 35.6875Z" fill="#3B2645"/>
<rect x="26.9564" y="25.7649" width="20.1635" height="18.2518" fill="white" stroke="#972AED"/>
<rect x="24.7857" y="23.5" width="3.88389" height="4.09606" fill="white" stroke="#972AED"/>
<rect x="45.4066" y="23.5" width="3.88389" height="4.09606" fill="white" stroke="#972AED"/>
<path fill-rule="evenodd" clip-rule="evenodd" d="M38.1234 30.9272C38.1234 29.8327 38.9738 28.9454 40.0227 28.9454C41.0717 28.9454 41.922 29.8327 41.922 30.9272C41.922 32.0217 41.0717 32.909 40.0227 32.909C38.9738 32.909 38.1234 32.0217 38.1234 30.9272ZM40.0227 30.0779C39.5732 30.0779 39.2087 30.4581 39.2087 30.9272C39.2087 31.3963 39.5732 31.7765 40.0227 31.7765C40.4723 31.7765 40.8367 31.3963 40.8367 30.9272C40.8367 30.4581 40.4723 30.0779 40.0227 30.0779ZM35.5048 31.524C35.6396 31.4753 35.7873 31.484 35.9161 31.5481L38.8998 33.034C39.0714 33.1195 39.1876 33.2924 39.2062 33.4899C39.2247 33.6873 39.1428 33.8805 38.9904 33.999L36.6273 35.8371L38.9645 37.4425C39.0895 37.5284 39.175 37.6644 39.2007 37.8183C39.2264 37.9722 39.19 38.1304 39.1001 38.2553L37.203 40.8924C37.0231 41.1425 36.683 41.1931 36.4433 41.0054C36.2036 40.8176 36.1551 40.4627 36.3351 40.2126L37.8856 38.0572L35.3839 36.3389C35.2361 36.2373 35.1451 36.067 35.1399 35.8824C35.1347 35.6979 35.2161 35.5223 35.358 35.4119L37.6208 33.6519L35.6495 32.6702L33.6884 33.3787C33.4052 33.481 33.0961 33.3244 32.9981 33.0289C32.9 32.7334 33.0501 32.4109 33.3333 32.3086L35.5048 31.524ZM42.5888 32.6532C42.794 32.8811 42.7833 33.2394 42.5649 33.4535L40.9374 35.0492C40.7667 35.2165 40.5123 35.2507 40.3065 35.1339L39.5789 34.721C39.3156 34.5716 39.2183 34.2278 39.3614 33.9531C39.5046 33.6784 39.8341 33.5768 40.0974 33.7262L40.4802 33.9434L41.8217 32.6282C42.0401 32.4141 42.3835 32.4252 42.5888 32.6532ZM35.1547 36.576C35.3934 36.7651 35.44 37.1203 35.2587 37.3694L34.453 38.4769C34.408 38.5388 34.3512 38.5903 34.2862 38.6283L31.6068 40.1966C31.3454 40.3496 31.0146 40.2525 30.868 39.9797C30.7214 39.707 30.8144 39.3619 31.0758 39.2089L33.6568 37.6983L34.3943 36.6846C34.5755 36.4356 34.9159 36.3869 35.1547 36.576Z" fill="#4F4F4F"/>
<rect x="24.7857" y="42.7518" width="3.88389" height="4.09606" fill="white" stroke="#972AED"/>
<rect x="45.4066" y="42.7518" width="3.88389" height="4.09606" fill="white" stroke="#972AED"/>
<defs>
<filter id="filter0_d_112_526" x="0" y="0" width="108" height="68" filterUnits="userSpaceOnUse" color-interpolation-filters="sRGB">
<feFlood flood-opacity="0" result="BackgroundImageFix"/>
<feColorMatrix in="SourceAlpha" type="matrix" values="0 0 0 0 0 0 0 0 0 0 0 0 0 0 0 0 0 0 127 0" result="hardAlpha"/>
<feOffset dy="-1"/>
<feGaussianBlur stdDeviation="7.5"/>
<feComposite in2="hardAlpha" operator="out"/>
<feColorMatrix type="matrix" values="0 0 0 0 0 0 0 0 0 0 0 0 0 0 0 0 0 0 0.3 0"/>
<feBlend mode="normal" in2="BackgroundImageFix" result="effect1_dropShadow_112_526"/>
<feBlend mode="normal" in="SourceGraphic" in2="effect1_dropShadow_112_526" result="shape"/>
</filter>
</defs>
</svg>
