<svg width="370" height="171" viewBox="0 0 370 171" fill="none" xmlns="http://www.w3.org/2000/svg">
<g filter="url(#filter0_d_102_10)">
<path d="M6.78 2.8H17.4C20.064 2.8 22.428 3.328 24.492 4.384C26.556 5.44 28.152 6.928 29.28 8.848C30.432 10.744 31.008 12.928 31.008 15.4C31.008 17.872 30.432 20.068 29.28 21.988C28.152 23.884 26.556 25.36 24.492 26.416C22.428 27.472 20.064 28 17.4 28H6.78V2.8ZM17.184 24.868C19.224 24.868 21.012 24.472 22.548 23.68C24.108 22.888 25.308 21.784 26.148 20.368C26.988 18.928 27.408 17.272 27.408 15.4C27.408 13.528 26.988 11.884 26.148 10.468C25.308 9.028 24.108 7.912 22.548 7.12C21.012 6.328 19.224 5.932 17.184 5.932H10.38V24.868H17.184ZM47.7902 28.216C45.8942 28.216 44.1902 27.796 42.6782 26.956C41.1662 26.116 39.9782 24.964 39.1142 23.5C38.2742 22.012 37.8542 20.332 37.8542 18.46C37.8542 16.588 38.2742 14.92 39.1142 13.456C39.9782 11.968 41.1662 10.816 42.6782 10C44.1902 9.16 45.8942 8.74 47.7902 8.74C49.6862 8.74 51.3782 9.16 52.8662 10C54.3782 10.816 55.5542 11.968 56.3942 13.456C57.2582 14.92 57.6902 16.588 57.6902 18.46C57.6902 20.332 57.2582 22.012 56.3942 23.5C55.5542 24.964 54.3782 26.116 52.8662 26.956C51.3782 27.796 49.6862 28.216 47.7902 28.216ZM47.7902 25.192C49.0142 25.192 50.1062 24.916 51.0662 24.364C52.0502 23.788 52.8182 22.996 53.3702 21.988C53.9222 20.956 54.1982 19.78 54.1982 18.46C54.1982 17.14 53.9222 15.976 53.3702 14.968C52.8182 13.936 52.0502 13.144 51.0662 12.592C50.1062 12.04 49.0142 11.764 47.7902 11.764C46.5662 11.764 45.4622 12.04 44.4782 12.592C43.5182 13.144 42.7502 13.936 42.1742 14.968C41.6222 15.976 41.3462 17.14 41.3462 18.46C41.3462 19.78 41.6222 20.956 42.1742 21.988C42.7502 22.996 43.5182 23.788 44.4782 24.364C45.4622 24.916 46.5662 25.192 47.7902 25.192Z" fill="#E18672"/>
<path d="M97.3377 1.288V28H94.0257V24.976C93.2577 26.032 92.2857 26.836 91.1097 27.388C89.9337 27.94 88.6377 28.216 87.2217 28.216C85.3737 28.216 83.7177 27.808 82.2537 26.992C80.7897 26.176 79.6377 25.036 78.7977 23.572C77.9817 22.084 77.5737 20.38 77.5737 18.46C77.5737 16.54 77.9817 14.848 78.7977 13.384C79.6377 11.92 80.7897 10.78 82.2537 9.964C83.7177 9.148 85.3737 8.74 87.2217 8.74C88.5897 8.74 89.8497 9.004 91.0017 9.532C92.1537 10.036 93.1137 10.792 93.8817 11.8V1.288H97.3377ZM87.5097 25.192C88.7097 25.192 89.8017 24.916 90.7857 24.364C91.7697 23.788 92.5377 22.996 93.0897 21.988C93.6417 20.956 93.9177 19.78 93.9177 18.46C93.9177 17.14 93.6417 15.976 93.0897 14.968C92.5377 13.936 91.7697 13.144 90.7857 12.592C89.8017 12.04 88.7097 11.764 87.5097 11.764C86.2857 11.764 85.1817 12.04 84.1977 12.592C83.2377 13.144 82.4697 13.936 81.8937 14.968C81.3417 15.976 81.0657 17.14 81.0657 18.46C81.0657 19.78 81.3417 20.956 81.8937 21.988C82.4697 22.996 83.2377 23.788 84.1977 24.364C85.1817 24.916 86.2857 25.192 87.5097 25.192ZM114.425 8.74C117.065 8.74 119.081 9.388 120.473 10.684C121.889 11.98 122.597 13.912 122.597 16.48V28H119.321V25.48C118.745 26.368 117.917 27.052 116.837 27.532C115.781 27.988 114.521 28.216 113.057 28.216C110.921 28.216 109.205 27.7 107.909 26.668C106.637 25.636 106.001 24.28 106.001 22.6C106.001 20.92 106.613 19.576 107.837 18.568C109.061 17.536 111.005 17.02 113.669 17.02H119.141V16.336C119.141 14.848 118.709 13.708 117.845 12.916C116.981 12.124 115.709 11.728 114.029 11.728C112.901 11.728 111.797 11.92 110.717 12.304C109.637 12.664 108.725 13.156 107.981 13.78L106.541 11.188C107.525 10.396 108.701 9.796 110.069 9.388C111.437 8.956 112.889 8.74 114.425 8.74ZM113.633 25.552C114.953 25.552 116.093 25.264 117.053 24.688C118.013 24.088 118.709 23.248 119.141 22.168V19.504H113.813C110.885 19.504 109.421 20.488 109.421 22.456C109.421 23.416 109.793 24.172 110.537 24.724C111.281 25.276 112.313 25.552 113.633 25.552ZM132.592 8.92H136.048V28H132.592V8.92ZM134.32 5.248C133.648 5.248 133.084 5.032 132.628 4.6C132.196 4.168 131.98 3.64 131.98 3.016C131.98 2.392 132.196 1.864 132.628 1.432C133.084 0.975999 133.648 0.747999 134.32 0.747999C134.992 0.747999 135.544 0.963999 135.976 1.396C136.432 1.804 136.66 2.32 136.66 2.944C136.66 3.592 136.432 4.144 135.976 4.6C135.544 5.032 134.992 5.248 134.32 5.248ZM146.247 1.288H149.703V28H146.247V1.288ZM176.786 8.92L167.534 29.908C166.718 31.852 165.758 33.22 164.654 34.012C163.574 34.804 162.266 35.2 160.73 35.2C159.794 35.2 158.882 35.044 157.994 34.732C157.13 34.444 156.41 34.012 155.834 33.436L157.31 30.844C158.294 31.78 159.434 32.248 160.73 32.248C161.57 32.248 162.266 32.02 162.818 31.564C163.394 31.132 163.91 30.376 164.366 29.296L164.978 27.964L156.554 8.92H160.154L166.814 24.184L173.402 8.92H176.786ZM225.751 8.92L218.623 28H215.311L209.803 13.528L204.223 28H200.911L193.819 8.92H197.095L202.639 24.112L208.399 8.92H211.315L216.967 24.184L222.655 8.92H225.751ZM240.503 28.216C238.607 28.216 236.903 27.796 235.391 26.956C233.879 26.116 232.691 24.964 231.827 23.5C230.987 22.012 230.567 20.332 230.567 18.46C230.567 16.588 230.987 14.92 231.827 13.456C232.691 11.968 233.879 10.816 235.391 10C236.903 9.16 238.607 8.74 240.503 8.74C242.399 8.74 244.091 9.16 245.579 10C247.091 10.816 248.267 11.968 249.107 13.456C249.971 14.92 250.403 16.588 250.403 18.46C250.403 20.332 249.971 22.012 249.107 23.5C248.267 24.964 247.091 26.116 245.579 26.956C244.091 27.796 242.399 28.216 240.503 28.216ZM240.503 25.192C241.727 25.192 242.819 24.916 243.779 24.364C244.763 23.788 245.531 22.996 246.083 21.988C246.635 20.956 246.911 19.78 246.911 18.46C246.911 17.14 246.635 15.976 246.083 14.968C245.531 13.936 244.763 13.144 243.779 12.592C242.819 12.04 241.727 11.764 240.503 11.764C239.279 11.764 238.175 12.04 237.191 12.592C236.231 13.144 235.463 13.936 234.887 14.968C234.335 15.976 234.059 17.14 234.059 18.46C234.059 19.78 234.335 20.956 234.887 21.988C235.463 22.996 236.231 23.788 237.191 24.364C238.175 24.916 239.279 25.192 240.503 25.192ZM11.748 75.216C10.188 75.216 8.688 75.012 7.248 74.604C5.808 74.172 4.68 73.632 3.864 72.984L5.304 70.248C6.144 70.848 7.164 71.328 8.364 71.688C9.564 72.048 10.776 72.228 12 72.228C15.024 72.228 16.536 71.364 16.536 69.636C16.536 69.06 16.332 68.604 15.924 68.268C15.516 67.932 15 67.692 14.376 67.548C13.776 67.38 12.912 67.2 11.784 67.008C10.248 66.768 8.988 66.492 8.004 66.18C7.044 65.868 6.216 65.34 5.52 64.596C4.824 63.852 4.476 62.808 4.476 61.464C4.476 59.736 5.196 58.356 6.636 57.324C8.076 56.268 10.008 55.74 12.432 55.74C13.704 55.74 14.976 55.896 16.248 56.208C17.52 56.52 18.564 56.94 19.38 57.468L17.904 60.204C16.344 59.196 14.508 58.692 12.396 58.692C10.932 58.692 9.816 58.932 9.048 59.412C8.28 59.892 7.896 60.528 7.896 61.32C7.896 61.944 8.112 62.436 8.544 62.796C8.976 63.156 9.504 63.42 10.128 63.588C10.776 63.756 11.676 63.948 12.828 64.164C14.364 64.428 15.6 64.716 16.536 65.028C17.496 65.316 18.312 65.82 18.984 66.54C19.656 67.26 19.992 68.268 19.992 69.564C19.992 71.292 19.248 72.672 17.76 73.704C16.296 74.712 14.292 75.216 11.748 75.216ZM38.6392 73.884C38.1352 74.316 37.5112 74.652 36.7672 74.892C36.0232 75.108 35.2552 75.216 34.4632 75.216C32.5432 75.216 31.0552 74.7 29.9992 73.668C28.9432 72.636 28.4152 71.16 28.4152 69.24V58.764H25.1752V55.92H28.4152V51.744H31.8712V55.92H37.3432V58.764H31.8712V69.096C31.8712 70.128 32.1232 70.92 32.6272 71.472C33.1552 72.024 33.8992 72.3 34.8592 72.3C35.9152 72.3 36.8152 72 37.5592 71.4L38.6392 73.884ZM53.3654 55.74C56.0054 55.74 58.0214 56.388 59.4134 57.684C60.8294 58.98 61.5374 60.912 61.5374 63.48V75H58.2614V72.48C57.6854 73.368 56.8574 74.052 55.7774 74.532C54.7214 74.988 53.4614 75.216 51.9974 75.216C49.8614 75.216 48.1454 74.7 46.8494 73.668C45.5774 72.636 44.9414 71.28 44.9414 69.6C44.9414 67.92 45.5534 66.576 46.7774 65.568C48.0014 64.536 49.9454 64.02 52.6094 64.02H58.0814V63.336C58.0814 61.848 57.6494 60.708 56.7854 59.916C55.9214 59.124 54.6494 58.728 52.9694 58.728C51.8414 58.728 50.7374 58.92 49.6574 59.304C48.5774 59.664 47.6654 60.156 46.9214 60.78L45.4814 58.188C46.4654 57.396 47.6414 56.796 49.0094 56.388C50.3774 55.956 51.8294 55.74 53.3654 55.74ZM52.5734 72.552C53.8934 72.552 55.0334 72.264 55.9934 71.688C56.9534 71.088 57.6494 70.248 58.0814 69.168V66.504H52.7534C49.8254 66.504 48.3614 67.488 48.3614 69.456C48.3614 70.416 48.7334 71.172 49.4774 71.724C50.2214 72.276 51.2534 72.552 52.5734 72.552ZM88.0655 55.92L78.8135 76.908C77.9975 78.852 77.0375 80.22 75.9335 81.012C74.8535 81.804 73.5455 82.2 72.0095 82.2C71.0735 82.2 70.1615 82.044 69.2735 81.732C68.4095 81.444 67.6895 81.012 67.1135 80.436L68.5895 77.844C69.5735 78.78 70.7135 79.248 72.0095 79.248C72.8495 79.248 73.5455 79.02 74.0975 78.564C74.6735 78.132 75.1895 77.376 75.6455 76.296L76.2575 74.964L67.8335 55.92H71.4335L78.0935 71.184L84.6815 55.92H88.0655ZM256.449 55.74C258.873 55.74 260.793 56.448 262.209 57.864C263.649 59.256 264.369 61.308 264.369 64.02V75H260.913V64.416C260.913 62.568 260.469 61.176 259.581 60.24C258.693 59.304 257.421 58.836 255.765 58.836C253.893 58.836 252.417 59.388 251.337 60.492C250.257 61.572 249.717 63.132 249.717 65.172V75H246.261V48.288H249.717V58.62C250.437 57.708 251.373 57 252.525 56.496C253.701 55.992 255.009 55.74 256.449 55.74ZM291.715 65.568C291.715 65.832 291.691 66.18 291.643 66.612H276.163C276.379 68.292 277.111 69.648 278.359 70.68C279.631 71.688 281.203 72.192 283.075 72.192C285.355 72.192 287.191 71.424 288.583 69.888L290.491 72.12C289.627 73.128 288.547 73.896 287.251 74.424C285.979 74.952 284.551 75.216 282.967 75.216C280.951 75.216 279.163 74.808 277.603 73.992C276.043 73.152 274.831 71.988 273.967 70.5C273.127 69.012 272.707 67.332 272.707 65.46C272.707 63.612 273.115 61.944 273.931 60.456C274.771 58.968 275.911 57.816 277.351 57C278.815 56.16 280.459 55.74 282.283 55.74C284.107 55.74 285.727 56.16 287.143 57C288.583 57.816 289.699 58.968 290.491 60.456C291.307 61.944 291.715 63.648 291.715 65.568ZM282.283 58.656C280.627 58.656 279.235 59.16 278.107 60.168C277.003 61.176 276.355 62.496 276.163 64.128H288.403C288.211 62.52 287.551 61.212 286.423 60.204C285.319 59.172 283.939 58.656 282.283 58.656ZM300.113 48.288H303.569V75H300.113V48.288ZM323.884 55.74C325.732 55.74 327.388 56.148 328.852 56.964C330.316 57.78 331.456 58.92 332.272 60.384C333.112 61.848 333.532 63.54 333.532 65.46C333.532 67.38 333.112 69.084 332.272 70.572C331.456 72.036 330.316 73.176 328.852 73.992C327.388 74.808 325.732 75.216 323.884 75.216C322.516 75.216 321.256 74.952 320.104 74.424C318.976 73.896 318.016 73.128 317.224 72.12V81.984H313.768V55.92H317.08V58.944C317.848 57.888 318.82 57.096 319.996 56.568C321.172 56.016 322.468 55.74 323.884 55.74ZM323.596 72.192C324.82 72.192 325.912 71.916 326.872 71.364C327.856 70.788 328.624 69.996 329.176 68.988C329.752 67.956 330.04 66.78 330.04 65.46C330.04 64.14 329.752 62.976 329.176 61.968C328.624 60.936 327.856 60.144 326.872 59.592C325.912 59.04 324.82 58.764 323.596 58.764C322.396 58.764 321.304 59.052 320.32 59.628C319.36 60.18 318.592 60.96 318.016 61.968C317.464 62.976 317.188 64.14 317.188 65.46C317.188 66.78 317.464 67.956 318.016 68.988C318.568 69.996 319.336 70.788 320.32 71.364C321.304 71.916 322.396 72.192 323.596 72.192ZM23.16 99.92L13.908 120.908C13.092 122.852 12.132 124.22 11.028 125.012C9.948 125.804 8.64 126.2 7.104 126.2C6.168 126.2 5.256 126.044 4.368 125.732C3.504 125.444 2.784 125.012 2.208 124.436L3.684 121.844C4.668 122.78 5.808 123.248 7.104 123.248C7.944 123.248 8.64 123.02 9.192 122.564C9.768 122.132 10.284 121.376 10.74 120.296L11.352 118.964L2.928 99.92H6.528L13.188 115.184L19.776 99.92H23.16ZM37.63 119.216C35.734 119.216 34.03 118.796 32.518 117.956C31.006 117.116 29.818 115.964 28.954 114.5C28.114 113.012 27.694 111.332 27.694 109.46C27.694 107.588 28.114 105.92 28.954 104.456C29.818 102.968 31.006 101.816 32.518 101C34.03 100.16 35.734 99.74 37.63 99.74C39.526 99.74 41.218 100.16 42.706 101C44.218 101.816 45.394 102.968 46.234 104.456C47.098 105.92 47.53 107.588 47.53 109.46C47.53 111.332 47.098 113.012 46.234 114.5C45.394 115.964 44.218 117.116 42.706 117.956C41.218 118.796 39.526 119.216 37.63 119.216ZM37.63 116.192C38.854 116.192 39.946 115.916 40.906 115.364C41.89 114.788 42.658 113.996 43.21 112.988C43.762 111.956 44.038 110.78 44.038 109.46C44.038 108.14 43.762 106.976 43.21 105.968C42.658 104.936 41.89 104.144 40.906 103.592C39.946 103.04 38.854 102.764 37.63 102.764C36.406 102.764 35.302 103.04 34.318 103.592C33.358 104.144 32.59 104.936 32.014 105.968C31.462 106.976 31.186 108.14 31.186 109.46C31.186 110.78 31.462 111.956 32.014 112.988C32.59 113.996 33.358 114.788 34.318 115.364C35.302 115.916 36.406 116.192 37.63 116.192ZM73.6936 99.92V119H70.4176V116.12C69.7216 117.104 68.7976 117.872 67.6456 118.424C66.5176 118.952 65.2816 119.216 63.9376 119.216C61.3936 119.216 59.3896 118.52 57.9256 117.128C56.4616 115.712 55.7296 113.636 55.7296 110.9V99.92H59.1856V110.504C59.1856 112.352 59.6296 113.756 60.5176 114.716C61.4056 115.652 62.6776 116.12 64.3336 116.12C66.1576 116.12 67.5976 115.568 68.6536 114.464C69.7096 113.36 70.2376 111.8 70.2376 109.784V99.92H73.6936ZM107.869 117.884C107.365 118.316 106.741 118.652 105.997 118.892C105.253 119.108 104.485 119.216 103.693 119.216C101.773 119.216 100.285 118.7 99.2288 117.668C98.1728 116.636 97.6448 115.16 97.6448 113.24V102.764H94.4048V99.92H97.6448V95.744H101.101V99.92H106.573V102.764H101.101V113.096C101.101 114.128 101.353 114.92 101.857 115.472C102.385 116.024 103.129 116.3 104.089 116.3C105.145 116.3 106.045 116 106.789 115.4L107.869 117.884ZM123.186 119.216C121.29 119.216 119.586 118.796 118.074 117.956C116.562 117.116 115.374 115.964 114.51 114.5C113.67 113.012 113.25 111.332 113.25 109.46C113.25 107.588 113.67 105.92 114.51 104.456C115.374 102.968 116.562 101.816 118.074 101C119.586 100.16 121.29 99.74 123.186 99.74C125.082 99.74 126.774 100.16 128.262 101C129.774 101.816 130.95 102.968 131.79 104.456C132.654 105.92 133.086 107.588 133.086 109.46C133.086 111.332 132.654 113.012 131.79 114.5C130.95 115.964 129.774 117.116 128.262 117.956C126.774 118.796 125.082 119.216 123.186 119.216ZM123.186 116.192C124.41 116.192 125.502 115.916 126.462 115.364C127.446 114.788 128.214 113.996 128.766 112.988C129.318 111.956 129.594 110.78 129.594 109.46C129.594 108.14 129.318 106.976 128.766 105.968C128.214 104.936 127.446 104.144 126.462 103.592C125.502 103.04 124.41 102.764 123.186 102.764C121.962 102.764 120.858 103.04 119.874 103.592C118.914 104.144 118.146 104.936 117.57 105.968C117.018 106.976 116.742 108.14 116.742 109.46C116.742 110.78 117.018 111.956 117.57 112.988C118.146 113.996 118.914 114.788 119.874 115.364C120.858 115.916 121.962 116.192 123.186 116.192Z" fill="white"/>
<path d="M262.094 12.124C262.694 11.02 263.582 10.18 264.758 9.604C265.934 9.028 267.362 8.74 269.042 8.74V12.088C268.85 12.064 268.586 12.052 268.25 12.052C266.378 12.052 264.902 12.616 263.822 13.744C262.766 14.848 262.238 16.432 262.238 18.496V28H258.782V8.92H262.094V12.124ZM284.318 19.108L280.358 22.78V28H276.902V1.288H280.358V18.424L290.762 8.92H294.938L286.91 16.804L295.73 28H291.482L284.318 19.108ZM310.049 28.216C308.153 28.216 306.449 27.796 304.937 26.956C303.425 26.116 302.237 24.964 301.373 23.5C300.533 22.012 300.113 20.332 300.113 18.46C300.113 16.588 300.533 14.92 301.373 13.456C302.237 11.968 303.425 10.816 304.937 10C306.449 9.16 308.153 8.74 310.049 8.74C311.945 8.74 313.637 9.16 315.125 10C316.637 10.816 317.813 11.968 318.653 13.456C319.517 14.92 319.949 16.588 319.949 18.46C319.949 20.332 319.517 22.012 318.653 23.5C317.813 24.964 316.637 26.116 315.125 26.956C313.637 27.796 311.945 28.216 310.049 28.216ZM310.049 25.192C311.273 25.192 312.365 24.916 313.325 24.364C314.309 23.788 315.077 22.996 315.629 21.988C316.181 20.956 316.457 19.78 316.457 18.46C316.457 17.14 316.181 15.976 315.629 14.968C315.077 13.936 314.309 13.144 313.325 12.592C312.365 12.04 311.273 11.764 310.049 11.764C308.825 11.764 307.721 12.04 306.737 12.592C305.777 13.144 305.009 13.936 304.433 14.968C303.881 15.976 303.605 17.14 303.605 18.46C303.605 19.78 303.881 20.956 304.433 21.988C305.009 22.996 305.777 23.788 306.737 24.364C307.721 24.916 308.825 25.192 310.049 25.192ZM346.112 8.92V28H342.836V25.12C342.14 26.104 341.216 26.872 340.064 27.424C338.936 27.952 337.7 28.216 336.356 28.216C333.812 28.216 331.808 27.52 330.344 26.128C328.88 24.712 328.148 22.636 328.148 19.9V8.92H331.604V19.504C331.604 21.352 332.048 22.756 332.936 23.716C333.824 24.652 335.096 25.12 336.752 25.12C338.576 25.12 340.016 24.568 341.072 23.464C342.128 22.36 342.656 20.8 342.656 18.784V8.92H346.112ZM367.02 26.884C366.516 27.316 365.892 27.652 365.148 27.892C364.404 28.108 363.636 28.216 362.844 28.216C360.924 28.216 359.436 27.7 358.38 26.668C357.324 25.636 356.796 24.16 356.796 22.24V11.764H353.556V8.92H356.796V4.744H360.252V8.92H365.724V11.764H360.252V22.096C360.252 23.128 360.504 23.92 361.008 24.472C361.536 25.024 362.28 25.3 363.24 25.3C364.296 25.3 365.196 25 365.94 24.4L367.02 26.884ZM115.647 51.672C113.751 51.672 112.803 52.704 112.803 54.768V55.92H118.095V59.52H112.947V75H108.447V59.52H105.279V55.92H108.447V54.696C108.447 52.632 109.047 51.012 110.247 49.836C111.447 48.636 113.139 48.036 115.323 48.036C117.051 48.036 118.407 48.384 119.391 49.08L118.131 52.464C117.363 51.936 116.535 51.672 115.647 51.672ZM123.999 55.776H128.499V75H123.999V55.776ZM126.267 52.608C125.451 52.608 124.767 52.356 124.215 51.852C123.663 51.324 123.387 50.676 123.387 49.908C123.387 49.14 123.663 48.504 124.215 48C124.767 47.472 125.451 47.208 126.267 47.208C127.083 47.208 127.767 47.46 128.319 47.964C128.871 48.444 129.147 49.056 129.147 49.8C129.147 50.592 128.871 51.264 128.319 51.816C127.791 52.344 127.107 52.608 126.267 52.608ZM149.569 73.956C149.041 74.388 148.393 74.712 147.625 74.928C146.881 75.144 146.089 75.252 145.249 75.252C143.137 75.252 141.505 74.7 140.353 73.596C139.201 72.492 138.625 70.884 138.625 68.772V59.52H135.457V55.92H138.625V51.528H143.125V55.92H148.273V59.52H143.125V68.664C143.125 69.6 143.353 70.32 143.809 70.824C144.265 71.304 144.925 71.544 145.789 71.544C146.797 71.544 147.637 71.28 148.309 70.752L149.569 73.956ZM158.023 75.216C157.351 75.216 156.775 74.988 156.295 74.532C155.815 74.052 155.575 73.452 155.575 72.732C155.575 72.036 155.815 71.46 156.295 71.004C156.775 70.524 157.351 70.284 158.023 70.284C158.695 70.284 159.259 70.512 159.715 70.968C160.171 71.424 160.399 72.012 160.399 72.732C160.399 73.452 160.159 74.052 159.679 74.532C159.223 74.988 158.671 75.216 158.023 75.216ZM202.871 51.2L194.915 75H191.345L184.851 55.994L178.357 75H174.719L166.763 51.2H170.265L176.691 70.546L183.389 51.2H186.517L193.079 70.648L199.641 51.2H202.871ZM224.879 66.092C224.879 66.3413 224.856 66.67 224.811 67.078H210.191C210.395 68.6647 211.086 69.9453 212.265 70.92C213.466 71.872 214.951 72.348 216.719 72.348C218.872 72.348 220.606 71.6227 221.921 70.172L223.723 72.28C222.907 73.232 221.887 73.9573 220.663 74.456C219.461 74.9547 218.113 75.204 216.617 75.204C214.713 75.204 213.024 74.8187 211.551 74.048C210.077 73.2547 208.933 72.1553 208.117 70.75C207.323 69.3447 206.927 67.758 206.927 65.99C206.927 64.2447 207.312 62.6693 208.083 61.264C208.876 59.8587 209.953 58.7707 211.313 58C212.695 57.2067 214.248 56.81 215.971 56.81C217.693 56.81 219.223 57.2067 220.561 58C221.921 58.7707 222.975 59.8587 223.723 61.264C224.493 62.6693 224.879 64.2787 224.879 66.092ZM215.971 59.564C214.407 59.564 213.092 60.04 212.027 60.992C210.984 61.944 210.372 63.1907 210.191 64.732H221.751C221.569 63.2133 220.946 61.978 219.881 61.026C218.838 60.0513 217.535 59.564 215.971 59.564ZM19.53 164.164C18.922 164.544 18.1747 164.835 17.288 165.038C16.4267 165.241 15.502 165.342 14.514 165.342C11.8287 165.342 9.764 164.683 8.32 163.366C6.876 162.049 6.154 160.085 6.154 157.476V150.56H3.152V145.164H6.154V139.806H13.374V145.164H18.086V150.56H13.374V157.4C13.374 158.135 13.564 158.717 13.944 159.148C14.3493 159.553 14.8813 159.756 15.54 159.756C16.376 159.756 17.1107 159.541 17.744 159.11L19.53 164.164ZM32.9921 146.874C33.7268 145.937 34.6768 145.24 35.8421 144.784C37.0328 144.303 38.3881 144.062 39.9081 144.062V150.56C39.2494 150.484 38.7048 150.446 38.2741 150.446C36.7288 150.446 35.5128 150.864 34.6261 151.7C33.7648 152.536 33.3341 153.815 33.3341 155.538V165H26.1141V144.404H32.9921V146.874ZM55.3171 144.062C58.7371 144.062 61.3464 144.847 63.1451 146.418C64.9438 147.963 65.8431 150.345 65.8431 153.562V165H59.1171V162.34C58.0784 164.341 56.0518 165.342 53.0371 165.342C51.4411 165.342 50.0604 165.063 48.8951 164.506C47.7298 163.949 46.8431 163.201 46.2351 162.264C45.6524 161.301 45.3611 160.212 45.3611 158.996C45.3611 157.045 46.1084 155.538 47.6031 154.474C49.0978 153.385 51.4031 152.84 54.5191 152.84H58.6231C58.4964 150.661 57.0398 149.572 54.2531 149.572C53.2651 149.572 52.2644 149.737 51.2511 150.066C50.2378 150.37 49.3764 150.801 48.6671 151.358L46.2351 146.456C47.3751 145.696 48.7558 145.113 50.3771 144.708C52.0238 144.277 53.6704 144.062 55.3171 144.062ZM55.0511 160.782C55.8871 160.782 56.6218 160.579 57.2551 160.174C57.8884 159.769 58.3444 159.173 58.6231 158.388V156.602H55.5071C53.4044 156.602 52.3531 157.299 52.3531 158.692C52.3531 159.325 52.5938 159.832 53.0751 160.212C53.5564 160.592 54.2151 160.782 55.0511 160.782ZM85.0233 165.342C82.7433 165.342 80.704 164.886 78.9053 163.974C77.1066 163.062 75.7006 161.795 74.6873 160.174C73.6993 158.553 73.2053 156.716 73.2053 154.664C73.2053 152.612 73.6993 150.788 74.6873 149.192C75.7006 147.571 77.1066 146.317 78.9053 145.43C80.704 144.518 82.7433 144.062 85.0233 144.062C87.354 144.062 89.368 144.569 91.0653 145.582C92.7626 146.57 93.966 147.951 94.6753 149.724L89.0893 152.574C88.152 150.725 86.784 149.8 84.9853 149.8C83.6933 149.8 82.6166 150.231 81.7553 151.092C80.9193 151.953 80.5013 153.144 80.5013 154.664C80.5013 156.209 80.9193 157.425 81.7553 158.312C82.6166 159.173 83.6933 159.604 84.9853 159.604C86.784 159.604 88.152 158.679 89.0893 156.83L94.6753 159.68C93.966 161.453 92.7626 162.847 91.0653 163.86C89.368 164.848 87.354 165.342 85.0233 165.342ZM110.468 157.78L108.34 159.946V165H101.12V136.804H108.34V151.586L115.712 144.404H124.262L115.712 153.22L124.984 165H116.244L110.468 157.78ZM148.869 165.342C147.653 165.342 146.627 164.937 145.791 164.126C144.955 163.315 144.537 162.289 144.537 161.048C144.537 159.781 144.942 158.755 145.753 157.97C146.589 157.185 147.628 156.792 148.869 156.792C150.136 156.792 151.174 157.185 151.985 157.97C152.796 158.755 153.201 159.781 153.201 161.048C153.201 162.289 152.783 163.315 151.947 164.126C151.136 164.937 150.11 165.342 148.869 165.342ZM163.431 165.342C162.215 165.342 161.189 164.937 160.353 164.126C159.517 163.315 159.099 162.289 159.099 161.048C159.099 159.781 159.504 158.755 160.315 157.97C161.151 157.185 162.189 156.792 163.431 156.792C164.697 156.792 165.736 157.185 166.547 157.97C167.357 158.755 167.763 159.781 167.763 161.048C167.763 162.289 167.345 163.315 166.509 164.126C165.698 164.937 164.672 165.342 163.431 165.342ZM177.992 165.342C176.776 165.342 175.75 164.937 174.914 164.126C174.078 163.315 173.66 162.289 173.66 161.048C173.66 159.781 174.066 158.755 174.876 157.97C175.712 157.185 176.751 156.792 177.992 156.792C179.259 156.792 180.298 157.185 181.108 157.97C181.919 158.755 182.324 159.781 182.324 161.048C182.324 162.289 181.906 163.315 181.07 164.126C180.26 164.937 179.234 165.342 177.992 165.342Z" fill="black"/>
<path d="M162.15 110.108L158.19 113.78V119H154.734V92.288H158.19V109.424L168.594 99.92H172.77L164.742 107.804L173.562 119H169.314L162.15 110.108ZM196.953 109.568C196.953 109.832 196.929 110.18 196.881 110.612H181.401C181.617 112.292 182.349 113.648 183.597 114.68C184.869 115.688 186.441 116.192 188.313 116.192C190.593 116.192 192.429 115.424 193.821 113.888L195.729 116.12C194.865 117.128 193.785 117.896 192.489 118.424C191.217 118.952 189.789 119.216 188.205 119.216C186.189 119.216 184.401 118.808 182.841 117.992C181.281 117.152 180.069 115.988 179.205 114.5C178.365 113.012 177.945 111.332 177.945 109.46C177.945 107.612 178.353 105.944 179.169 104.456C180.009 102.968 181.149 101.816 182.589 101C184.053 100.16 185.697 99.74 187.521 99.74C189.345 99.74 190.965 100.16 192.381 101C193.821 101.816 194.937 102.968 195.729 104.456C196.545 105.944 196.953 107.648 196.953 109.568ZM187.521 102.656C185.865 102.656 184.473 103.16 183.345 104.168C182.241 105.176 181.593 106.496 181.401 108.128H193.641C193.449 106.52 192.789 105.212 191.661 104.204C190.557 103.172 189.177 102.656 187.521 102.656ZM222.596 109.568C222.596 109.832 222.572 110.18 222.524 110.612H207.044C207.26 112.292 207.992 113.648 209.24 114.68C210.512 115.688 212.084 116.192 213.956 116.192C216.236 116.192 218.072 115.424 219.464 113.888L221.372 116.12C220.508 117.128 219.428 117.896 218.132 118.424C216.86 118.952 215.432 119.216 213.848 119.216C211.832 119.216 210.044 118.808 208.484 117.992C206.924 117.152 205.712 115.988 204.848 114.5C204.008 113.012 203.588 111.332 203.588 109.46C203.588 107.612 203.996 105.944 204.812 104.456C205.652 102.968 206.792 101.816 208.232 101C209.696 100.16 211.34 99.74 213.164 99.74C214.988 99.74 216.608 100.16 218.024 101C219.464 101.816 220.58 102.968 221.372 104.456C222.188 105.944 222.596 107.648 222.596 109.568ZM213.164 102.656C211.508 102.656 210.116 103.16 208.988 104.168C207.884 105.176 207.236 106.496 207.044 108.128H219.284C219.092 106.52 218.432 105.212 217.304 104.204C216.2 103.172 214.82 102.656 213.164 102.656ZM241.111 99.74C242.959 99.74 244.615 100.148 246.079 100.964C247.543 101.78 248.683 102.92 249.499 104.384C250.339 105.848 250.759 107.54 250.759 109.46C250.759 111.38 250.339 113.084 249.499 114.572C248.683 116.036 247.543 117.176 246.079 117.992C244.615 118.808 242.959 119.216 241.111 119.216C239.743 119.216 238.483 118.952 237.331 118.424C236.203 117.896 235.243 117.128 234.451 116.12V125.984H230.995V99.92H234.307V102.944C235.075 101.888 236.047 101.096 237.223 100.568C238.399 100.016 239.695 99.74 241.111 99.74ZM240.823 116.192C242.047 116.192 243.139 115.916 244.099 115.364C245.083 114.788 245.851 113.996 246.403 112.988C246.979 111.956 247.267 110.78 247.267 109.46C247.267 108.14 246.979 106.976 246.403 105.968C245.851 104.936 245.083 104.144 244.099 103.592C243.139 103.04 242.047 102.764 240.823 102.764C239.623 102.764 238.531 103.052 237.547 103.628C236.587 104.18 235.819 104.96 235.243 105.968C234.691 106.976 234.415 108.14 234.415 109.46C234.415 110.78 234.691 111.956 235.243 112.988C235.795 113.996 236.563 114.788 237.547 115.364C238.531 115.916 239.623 116.192 240.823 116.192ZM279.35 99.74C281.99 99.74 284.006 100.388 285.398 101.684C286.814 102.98 287.522 104.912 287.522 107.48V119H284.246V116.48C283.67 117.368 282.842 118.052 281.762 118.532C280.706 118.988 279.446 119.216 277.982 119.216C275.846 119.216 274.13 118.7 272.834 117.668C271.562 116.636 270.926 115.28 270.926 113.6C270.926 111.92 271.538 110.576 272.762 109.568C273.986 108.536 275.93 108.02 278.594 108.02H284.066V107.336C284.066 105.848 283.634 104.708 282.77 103.916C281.906 103.124 280.634 102.728 278.954 102.728C277.826 102.728 276.722 102.92 275.642 103.304C274.562 103.664 273.65 104.156 272.906 104.78L271.466 102.188C272.45 101.396 273.626 100.796 274.994 100.388C276.362 99.956 277.814 99.74 279.35 99.74ZM278.558 116.552C279.878 116.552 281.018 116.264 281.978 115.688C282.938 115.088 283.634 114.248 284.066 113.168V110.504H278.738C275.81 110.504 274.346 111.488 274.346 113.456C274.346 114.416 274.718 115.172 275.462 115.724C276.206 116.276 277.238 116.552 278.558 116.552Z" fill="#EFA08B"/>
</g>
<defs>
<filter id="filter0_d_102_10" x="0.208008" y="0.748001" width="368.812" height="169.594" filterUnits="userSpaceOnUse" color-interpolation-filters="sRGB">
<feFlood flood-opacity="0" result="BackgroundImageFix"/>
<feColorMatrix in="SourceAlpha" type="matrix" values="0 0 0 0 0 0 0 0 0 0 0 0 0 0 0 0 0 0 127 0" result="hardAlpha"/>
<feOffset dy="3"/>
<feGaussianBlur stdDeviation="1"/>
<feComposite in2="hardAlpha" operator="out"/>
<feColorMatrix type="matrix" values="0 0 0 0 0.333333 0 0 0 0 0 0 0 0 0 0.670588 0 0 0 1 0"/>
<feBlend mode="normal" in2="BackgroundImageFix" result="effect1_dropShadow_102_10"/>
<feBlend mode="normal" in="SourceGraphic" in2="effect1_dropShadow_102_10" result="shape"/>
</filter>
</defs>
</svg>
